<svg xmlns="http://www.w3.org/2000/svg" viewBox="0 0 400 500">
  <defs>
    <linearGradient id="sky" x1="0" y1="0" x2="0" y2="1">
      <stop offset="0%" stop-color="#F5E6D3"/>
      <stop offset="100%" stop-color="#FAF3E8"/>
    </linearGradient>
  </defs>
  <rect width="400" height="500" fill="url(#sky)"/>
  <circle cx="320" cy="80" r="40" fill="#F5C842" opacity="0.4"/>
  <rect x="0" y="400" width="400" height="100" fill="#D4C4A8"/>
  <!-- Leo sitting peacefully -->
  <ellipse cx="200" cy="370" rx="45" ry="10" fill="#35629E" stroke="#2C1810" stroke-width="2"/>
  <path d="M165 345 L160 370 L240 370 L235 345 Q200 328 165 345Z" fill="#5CB85C" stroke="#2C1810" stroke-width="2.5"/>
  <ellipse cx="200" cy="310" rx="24" ry="26" fill="#F4C9A0" stroke="#2C1810" stroke-width="2.5"/>
  <path d="M178 298 C176 284 188 274 200 274 C212 274 224 284 222 298" fill="#6B4423" stroke="#2C1810" stroke-width="2"/>
  <path d="M188 298" fill="none" stroke="#2C1810" stroke-width="2" stroke-linecap="round"/>
  <path d="M212 298" fill="none" stroke="#2C1810" stroke-width="2" stroke-linecap="round"/>
  <ellipse cx="190" cy="306" rx="4" ry="2" fill="none" stroke="#2C1810" stroke-width="1.5"/>
  <ellipse cx="210" cy="306" rx="4" ry="2" fill="none" stroke="#2C1810" stroke-width="1.5"/>
  <path d="M192 318 Q200 324 208 318" fill="none" stroke="#2C1810" stroke-width="2" stroke-linecap="round"/>
  <!-- Breathing wisps -->
  <path d="M200 280 Q185 260 200 240 Q215 260 200 280" fill="none" stroke="#7EB8DA" stroke-width="2" opacity="0.5"/>
  <path d="M185 250 Q175 235 185 220" fill="none" stroke="#7EB8DA" stroke-width="1.5" opacity="0.4"/>
  <path d="M215 250 Q225 235 215 220" fill="none" stroke="#7EB8DA" stroke-width="1.5" opacity="0.4"/>
  <text x="200" y="200" text-anchor="middle" font-family="Nunito,sans-serif" font-size="18" font-weight="600" fill="#5C4033">breathe</text>
  <!-- Pip beside Leo -->
  <ellipse cx="280" cy="365" rx="22" ry="19" fill="#6EB5E0" stroke="#2C1810" stroke-width="2"/>
  <ellipse cx="273" cy="360" rx="7" ry="9" fill="white" stroke="#2C1810" stroke-width="1.5"/>
  <ellipse cx="287" cy="360" rx="7" ry="9" fill="white" stroke="#2C1810" stroke-width="1.5"/>
  <path d="M274 372 Q280 376 286 372" fill="none" stroke="#2C1810" stroke-width="2"/>
  <rect x="290" y="368" width="12" height="9" rx="2" fill="#F5C842" stroke="#2C1810" stroke-width="1.5"/>
  <!-- Calmer volcano - smaller -->
  <ellipse cx="200" cy="290" rx="20" ry="18" fill="#E8A598" opacity="0.2"/>
</svg>
