<svg xmlns="http://www.w3.org/2000/svg" viewBox="0 0 400 500">
  <rect width="400" height="500" fill="#FAF3E8"/>
  <rect x="80" y="60" width="120" height="200" rx="4" fill="#E8DFD0" stroke="#2C1810" stroke-width="2.5"/>
  <path d="M80 60 L140 20 L200 60" fill="#D4C4A8" stroke="#2C1810" stroke-width="2"/>
  <ellipse cx="200" cy="320" rx="35" ry="38" fill="#F4C9A0" stroke="#2C1810" stroke-width="2.5"/>
  <path d="M172 308 C170 290 184 278 200 278 C216 278 230 290 228 308" fill="#6B4423" stroke="#2C1810" stroke-width="2"/>
  <path d="M188 328 Q200 336 212 328" fill="none" stroke="#2C1810" stroke-width="2"/>
  <ellipse cx="280" cy="340" rx="32" ry="28" fill="#6EB5E0" stroke="#2C1810" stroke-width="2.5"/>
  <ellipse cx="268" cy="332" rx="10" ry="12" fill="white" stroke="#2C1810" stroke-width="1.5"/>
  <ellipse cx="292" cy="332" rx="10" ry="12" fill="white" stroke="#2C1810" stroke-width="1.5"/>
  <path d="M268 352 Q280 360 292 352" fill="none" stroke="#2C1810" stroke-width="2"/>
  <rect x="298" y="348" width="16" height="12" rx="2" fill="#F5C842" stroke="#2C1810" stroke-width="1.5"/>
  <text x="200" y="420" text-anchor="middle" font-family="Nunito,sans-serif" font-size="14" fill="#5C4033">Ready?</text>
</svg>
