<svg xmlns="http://www.w3.org/2000/svg" viewBox="0 0 400 500">
  <rect width="400" height="500" fill="#FAF3E8"/>
  <rect x="0" y="380" width="400" height="120" fill="#D4C4A8"/>
  <rect x="0" y="0" width="400" height="200" fill="#E8DFD0"/>
  <!-- Green bricks tower -->
  <rect x="155" y="260" width="40" height="25" rx="3" fill="#4E9A4E" stroke="#2C1810" stroke-width="2.5"/>
  <rect x="153" y="258" width="40" height="25" rx="3" fill="#6BB86B" stroke="#2C1810" stroke-width="2.5"/>
  <rect x="170" y="232" width="40" height="25" rx="3" fill="#4E9A4E" stroke="#2C1810" stroke-width="2.5"/>
  <rect x="168" y="230" width="40" height="25" rx="3" fill="#6BB86B" stroke="#2C1810" stroke-width="2.5"/>
  <rect x="185" y="204" width="40" height="25" rx="3" fill="#4E9A4E" stroke="#2C1810" stroke-width="2.5"/>
  <rect x="183" y="202" width="40" height="25" rx="3" fill="#6BB86B" stroke="#2C1810" stroke-width="2.5"/>
  <!-- Leo kneeling -->
  <ellipse cx="120" cy="340" rx="28" ry="8" fill="#35629E" stroke="#2C1810" stroke-width="2"/>
  <path d="M95 310 L90 340 L150 340 L145 310 Q120 295 95 310Z" fill="#449944" stroke="#2C1810" stroke-width="2.5"/>
  <rect x="88" y="300" width="14" height="30" rx="7" fill="#E5B088" stroke="#2C1810" stroke-width="2"/>
  <rect x="148" y="300" width="14" height="30" rx="7" fill="#E5B088" stroke="#2C1810" stroke-width="2"/>
  <ellipse cx="120" cy="278" rx="22" ry="24" fill="#F4C9A0" stroke="#2C1810" stroke-width="2.5"/>
  <path d="M98 268 C96 252 108 242 120 242 C132 242 144 252 142 268" fill="#6B4423" stroke="#2C1810" stroke-width="2"/>
  <ellipse cx="112" cy="276" rx="4" ry="5" fill="white" stroke="#2C1810" stroke-width="1.5"/>
  <ellipse cx="128" cy="276" rx="4" ry="5" fill="white" stroke="#2C1810" stroke-width="1.5"/>
  <circle cx="112" cy="277" r="2.5" fill="#2C1810"/>
  <circle cx="128" cy="277" r="2.5" fill="#2C1810"/>
  <path d="M110 288 Q120 294 130 288" fill="none" stroke="#2C1810" stroke-width="2" stroke-linecap="round"/>
  <!-- Pip watching -->
  <ellipse cx="280" cy="355" rx="26" ry="22" fill="#4A95C4" stroke="#2C1810" stroke-width="2.5"/>
  <ellipse cx="280" cy="352" rx="26" ry="22" fill="#6EB5E0" stroke="#2C1810" stroke-width="2.5"/>
  <line x1="268" y1="328" x2="264" y2="316" stroke="#2C1810" stroke-width="2" stroke-linecap="round"/>
  <line x1="292" y1="328" x2="296" y2="316" stroke="#2C1810" stroke-width="2" stroke-linecap="round"/>
  <ellipse cx="270" cy="350" rx="9" ry="11" fill="white" stroke="#2C1810" stroke-width="1.5"/>
  <ellipse cx="290" cy="350" rx="9" ry="11" fill="white" stroke="#2C1810" stroke-width="1.5"/>
  <circle cx="270" cy="352" r="4" fill="#2C1810"/>
  <circle cx="290" cy="352" r="4" fill="#2C1810"/>
  <rect x="296" y="360" width="14" height="10" rx="2" fill="#F5C842" stroke="#2C1810" stroke-width="1.5"/>
</svg>
