<svg xmlns="http://www.w3.org/2000/svg" viewBox="0 0 400 500">
  <rect width="400" height="500" fill="#FAF3E8"/>
  <rect x="0" y="380" width="400" height="120" fill="#D4C4A8"/>
  <!-- Fallen bricks -->
  <rect x="140" y="350" width="35" height="22" rx="3" fill="#6BB86B" stroke="#2C1810" stroke-width="2" transform="rotate(-15 157 361)"/>
  <rect x="200" y="360" width="35" height="22" rx="3" fill="#6BB86B" stroke="#2C1810" stroke-width="2" transform="rotate(20 217 371)"/>
  <rect x="170" y="370" width="35" height="22" rx="3" fill="#6BB86B" stroke="#2C1810" stroke-width="2"/>
  <!-- Leo standing, surprised -->
  <ellipse cx="200" cy="400" rx="30" ry="8" fill="#35629E" stroke="#2C1810" stroke-width="2"/>
  <path d="M172 370 L168 400 L232 400 L228 370 Q200 352 172 370Z" fill="#5CB85C" stroke="#2C1810" stroke-width="2.5"/>
  <rect x="164" y="358" width="14" height="32" rx="7" fill="#F4C9A0" stroke="#2C1810" stroke-width="2"/>
  <rect x="222" y="358" width="14" height="32" rx="7" fill="#F4C9A0" stroke="#2C1810" stroke-width="2"/>
  <ellipse cx="200" cy="330" rx="24" ry="26" fill="#F4C9A0" stroke="#2C1810" stroke-width="2.5"/>
  <path d="M176 318 C174 300 188 288 200 288 C212 288 226 300 224 318" fill="#6B4423" stroke="#2C1810" stroke-width="2"/>
  <ellipse cx="190" cy="328" rx="5" ry="6" fill="white" stroke="#2C1810" stroke-width="1.5"/>
  <ellipse cx="210" cy="328" rx="5" ry="6" fill="white" stroke="#2C1810" stroke-width="1.5"/>
  <circle cx="190" cy="329" r="3" fill="#2C1810"/>
  <circle cx="210" cy="329" r="3" fill="#2C1810"/>
  <ellipse cx="200" cy="342" rx="6" ry="4" fill="#2C1810"/>
  <!-- Warm volcano inside -->
  <ellipse cx="200" cy="300" rx="35" ry="40" fill="#E8A598" opacity="0.35"/>
  <path d="M200 250 Q170 280 185 310 Q200 295 215 310 Q230 280 200 250" fill="#E8A598" opacity="0.5" stroke="#2C1810" stroke-width="2"/>
  <path d="M200 265 Q200 240 200 220" fill="none" stroke="#E8A598" stroke-width="4" stroke-linecap="round" opacity="0.6"/>
  <text x="200" y="210" text-anchor="middle" font-family="Nunito,sans-serif" font-size="14" fill="#5C4033" opacity="0.7">warm...</text>
</svg>
