<svg xmlns="http://www.w3.org/2000/svg" viewBox="0 0 400 500">
  <rect width="400" height="500" fill="#FAF3E8"/>
  <rect x="0" y="400" width="400" height="100" fill="#D4C4A8"/>
  <!-- Leo -->
  <ellipse cx="140" cy="360" rx="28" ry="8" fill="#35629E" stroke="#2C1810" stroke-width="2"/>
  <path d="M115 335 L112 360 L168 360 L165 335 Q140 322 115 335Z" fill="#5CB85C" stroke="#2C1810" stroke-width="2.5"/>
  <ellipse cx="140" cy="305" rx="22" ry="24" fill="#F4C9A0" stroke="#2C1810" stroke-width="2.5"/>
  <path d="M122 295 C120 282 130 272 140 272 C150 272 160 282 158 295" fill="#6B4423" stroke="#2C1810" stroke-width="2"/>
  <ellipse cx="133" cy="303" rx="4" ry="5" fill="white" stroke="#2C1810" stroke-width="1.5"/>
  <ellipse cx="147" cy="303" rx="4" ry="5" fill="white" stroke="#2C1810" stroke-width="1.5"/>
  <circle cx="133" cy="304" r="2.5" fill="#2C1810"/>
  <circle cx="147" cy="304" r="2.5" fill="#2C1810"/>
  <path d="M130 315 Q140 320 150 315" fill="none" stroke="#2C1810" stroke-width="2"/>
  <!-- Pip close up, kind eyes -->
  <ellipse cx="280" cy="340" rx="40" ry="35" fill="#4A95C4" stroke="#2C1810" stroke-width="2.5"/>
  <ellipse cx="280" cy="335" rx="40" ry="35" fill="#6EB5E0" stroke="#2C1810" stroke-width="2.5"/>
  <line x1="258" y1="300" x2="252" y2="282" stroke="#2C1810" stroke-width="2.5" stroke-linecap="round"/>
  <line x1="302" y1="300" x2="308" y2="282" stroke="#2C1810" stroke-width="2.5" stroke-linecap="round"/>
  <circle cx="252" cy="282" r="4" fill="#8ECAE6" stroke="#2C1810" stroke-width="1.5"/>
  <circle cx="308" cy="282" r="4" fill="#8ECAE6" stroke="#2C1810" stroke-width="1.5"/>
  <ellipse cx="262" cy="332" rx="14" ry="16" fill="white" stroke="#2C1810" stroke-width="2"/>
  <ellipse cx="298" cy="332" rx="14" ry="16" fill="white" stroke="#2C1810" stroke-width="2"/>
  <circle cx="262" cy="335" r="6" fill="#2C1810"/>
  <circle cx="298" cy="335" r="6" fill="#2C1810"/>
  <circle cx="265" cy="332" r="2" fill="white"/>
  <circle cx="301" cy="332" r="2" fill="white"/>
  <path d="M268 358 Q280 366 292 358" fill="none" stroke="#2C1810" stroke-width="2.5" stroke-linecap="round"/>
  <rect x="302" y="355" width="18" height="14" rx="2" fill="#F5C842" stroke="#2C1810" stroke-width="2"/>
  <!-- Speech bubble -->
  <path d="M220 260 L320 260 Q340 260 340 280 L340 300 Q340 320 320 320 L240 320 L220 340 L225 320 L200 320 Q180 320 180 300 L180 280 Q180 260 200 260 Z" fill="white" stroke="#2C1810" stroke-width="2.5"/>
  <text x="260" y="288" text-anchor="middle" font-family="Nunito,sans-serif" font-size="11" fill="#5C4033">Something</text>
  <text x="260" y="304" text-anchor="middle" font-family="Nunito,sans-serif" font-size="11" fill="#5C4033">interesting...</text>
</svg>
