<svg xmlns="http://www.w3.org/2000/svg" viewBox="0 0 400 500">
  <rect width="400" height="500" fill="#FAF3E8"/>
  <rect x="0" y="400" width="400" height="100" fill="#D4C4A8"/>
  <!-- Clock showing 10 min -->
  <circle cx="200" cy="150" r="50" fill="white" stroke="#2C1810" stroke-width="3"/>
  <line x1="200" y1="150" x2="200" y2="115" stroke="#2C1810" stroke-width="3" stroke-linecap="round"/>
  <line x1="200" y1="150" x2="225" y2="150" stroke="#2C1810" stroke-width="2" stroke-linecap="round"/>
  <text x="200" y="220" text-anchor="middle" font-family="Nunito,sans-serif" font-size="16" font-weight="600" fill="#5C4033">10 minutes</text>
  <!-- Dad gentle -->
  <ellipse cx="300" cy="330" rx="24" ry="26" fill="#F4C9A0" stroke="#2C1810" stroke-width="2.5"/>
  <path d="M282 318 C280 305 290 296 300 296 C310 296 320 305 318 318" fill="#6B4423" stroke="#2C1810" stroke-width="2"/>
  <!-- Leo surprised - shoes still on floor -->
  <ellipse cx="120" cy="360" rx="22" ry="24" fill="#F4C9A0" stroke="#2C1810" stroke-width="2.5"/>
  <ellipse cx="110" cy="355" rx="5" ry="6" fill="white" stroke="#2C1810" stroke-width="1.5"/>
  <ellipse cx="130" cy="355" rx="5" ry="6" fill="white" stroke="#2C1810" stroke-width="1.5"/>
  <ellipse cx="120" cy="368" rx="5" ry="4" fill="#2C1810"/>
  <ellipse cx="95" cy="395" rx="16" ry="7" fill="#8B5E3C" stroke="#2C1810" stroke-width="2"/>
  <ellipse cx="130" cy="395" rx="16" ry="7" fill="#8B5E3C" stroke="#2C1810" stroke-width="2"/>
</svg>
